<svg xmlns="http://www.w3.org/2000/svg" viewBox="0 0 20 20" width="20" height="20"><g stroke="none" stroke-width="1" fill="none" fill-rule="evenodd"><g transform="translate(-23.000000, -130.000000)" fill="#000000" fill-rule="nonzero"><g transform="translate(23.000000, 130.000000)"><path d="M15.5172727,10.2309091 L15.5172727,14.6181818 L13.0445455,14.6181818 L13.0445455,10.2309091 L15.5172727,10.2309091 Z M9.89818182,5.05181818 L9.89818182,5.05272727 C10.3493603,5.04051205 10.7715937,5.27423338 11.000783,5.66305658 C11.2299724,6.05187977 11.2299724,6.53448387 11.000783,6.92330706 C10.7715937,7.31213025 10.3493603,7.54585159 9.89818182,7.53363636 C9.21284665,7.53363636 8.65727273,6.97806244 8.65727273,6.29272727 C8.65727273,5.60739211 9.21284665,5.05181818 9.89818182,5.05181818 Z M9.89818182,15.9572727 C10.583517,15.9572727 11.1390909,16.5128467 11.1390909,17.1981818 C11.1390909,17.2500906 11.1359036,17.301255 11.1297142,17.3514899 L11.1297397,18.3933216 C11.1359144,18.443463 11.1390909,18.4945424 11.1390909,18.5463636 C11.1390909,19.2316988 10.583517,19.7872727 9.89818182,19.7872727 C9.21284668,19.7872727 8.6572728,19.2316988 8.6572728,18.5463636 L8.65727273,18.5454545 L8.65727273,17.1981818 C8.65727273,16.5128467 9.21284665,15.9572727 9.89818182,15.9572727 Z M5.51090909,12.02 C6.19624426,12.02 6.75181818,12.5755739 6.75181818,13.2609091 C6.75181818,13.3124671 6.74867385,13.3632908 6.74256648,13.4131988 L6.74259168,14.4570654 C6.74868444,14.5068806 6.75181818,14.5576198 6.75181818,14.6090909 C6.75181818,15.2944261 6.19624426,15.85 5.51090909,15.85 C4.82557392,15.85 4.27,15.2944261 4.27,14.6090909 L4.27,13.26 L4.27000007,13.2609091 C4.27000007,12.575574 4.82557395,12.02 5.51090909,12.02 Z M14.2763636,13.3681818 C14.9616988,13.3681818 15.5172727,13.9237557 15.5172727,14.6090909 C15.5172727,15.2944261 14.9616988,15.85 14.2763636,15.85 C13.5910285,15.85 13.0354545,15.2944261 13.0354545,14.6090909 C13.0354545,13.9237557 13.5910285,13.3681818 14.2763636,13.3681818 Z M11.13,6.29272727 L11.1312718,13.3453725 C11.1364377,13.3913531 11.1390909,13.438094 11.1390909,13.4854545 C11.1390909,14.1707897 10.583517,14.7263636 9.89818182,14.7263636 C9.21284665,14.7263636 8.65727273,14.1707897 8.65727273,13.4854545 L8.65727273,6.29272727 L11.13,6.29272727 Z M1.24090909,7.97363636 L1.24090909,7.97454545 C1.69208756,7.96233023 2.11432097,8.19605157 2.3435103,8.58487476 C2.50752224,8.86312352 2.55416433,9.18939831 2.48343657,9.49496257 L2.48181818,10.5636364 C2.48181818,11.2489715 1.92624426,11.8045455 1.24090909,11.8045455 C0.555573924,11.8045455 0,11.2489715 0,10.5636364 C0,10.5117981 0.00317860484,10.4607023 0.00935154198,10.4105331 L0.00937209795,9.36784811 C0.00318726127,9.31761861 0,9.26645425 0,9.21454545 C0,8.52921029 0.555573924,7.97363636 1.24090909,7.97363636 Z M18.5463636,7.97363636 C18.9966278,7.96216604 19.4189457,8.19573291 19.6482768,8.58447165 C19.811572,8.8612731 19.8586825,9.18566527 19.7895835,9.48993484 L19.7872727,10.5636364 L19.7863636,10.5636364 C19.7863636,11.2489715 19.2307897,11.8045455 18.5454545,11.8045455 C17.8601194,11.8045455 17.3045455,11.2489715 17.3045455,10.5636364 C17.3045455,10.5117114 17.3077347,10.4605314 17.313928,10.4102814 L17.3140633,9.36149039 C17.3083787,9.31330326 17.3054545,9.26426585 17.3054545,9.21454545 C17.3054545,8.52921029 17.8610285,7.97363636 18.5463636,7.97363636 Z M14.2763636,8.99 C14.9616988,8.99 15.5172727,9.54557392 15.5172727,10.2309091 C15.5172727,10.9162443 14.9616988,11.4718182 14.2763636,11.4718182 C13.5910285,11.4718182 13.0354545,10.9162443 13.0354545,10.2309091 C13.0354545,9.54557392 13.5910285,8.99 14.2763636,8.99 Z M5.51090909,3.92909091 C6.19624426,3.92909091 6.75181818,4.48466483 6.75181818,5.17 C6.75181818,5.21974207 6.74889145,5.26880056 6.74320078,5.31701267 L6.74330074,9.41020032 C6.74892572,9.45813921 6.75181818,9.50691364 6.75181818,9.55636364 C6.75181818,10.2416988 6.19624426,10.7972727 5.51090909,10.7972727 C4.83468025,10.7972727 4.28478718,10.256365 4.27029327,9.58361288 L4.27,9.58363636 L4.27,5.16909091 C4.27,4.48466483 4.82557392,3.92909091 5.51090909,3.92909091 Z M14.2763636,3.92818182 C14.7275421,3.91687569 15.1497755,4.15059702 15.3789648,4.53942021 C15.5421591,4.8162818 15.5891509,5.14069174 15.5199402,5.44493641 L15.5172727,6.51818182 C15.5172727,7.20351699 14.9616988,7.75909091 14.2763636,7.75909091 C13.5910285,7.75909091 13.0354545,7.20351699 13.0354545,6.51818182 L13.0440933,6.37098796 L13.0440933,5.31627363 C13.0383886,5.26801438 13.0354545,5.21889529 13.0354545,5.16909091 C13.0354545,4.48375574 13.5910285,3.92818182 14.2763636,3.92818182 Z M9.89818182,0 C10.583517,0 11.1390909,0.555573924 11.1390909,1.24090909 C11.1390909,1.29273035 11.1359144,1.34380969 11.1297454,1.39396302 L11.1297199,2.43579476 C11.1359036,2.48601775 11.1390909,2.53718212 11.1390909,2.58909091 C11.1390909,3.27442608 10.583517,3.83 9.89818182,3.83 C9.21284665,3.83 8.65727273,3.27442608 8.65727273,2.58909091 L8.65727273,1.24090909 C8.65727273,0.555573924 9.21284665,0 9.89818182,0 Z" fill="currentColor"></path></g></g></g></svg>